<?xml version="1.0" encoding="UTF-8" standalone="no"?>
<svg
   xmlns:dc="http://purl.org/dc/elements/1.1/"
   xmlns:cc="http://creativecommons.org/ns#"
   xmlns:rdf="http://www.w3.org/1999/02/22-rdf-syntax-ns#"
   xmlns:svg="http://www.w3.org/2000/svg"
   xmlns="http://www.w3.org/2000/svg"
   xmlns:sodipodi="http://sodipodi.sourceforge.net/DTD/sodipodi-0.dtd"
   xmlns:inkscape="http://www.inkscape.org/namespaces/inkscape"
   viewBox="0 0 480 480"
   version="1.1"
   id="svg22"
   sodipodi:docname="SimpleIcons.svg"
   width="480"
   height="480"
   inkscape:version="1.0.2-2 (e86c870879, 2021-01-15)"
   inkscape:export-filename="C:\Users\baker\Repositories\KtaneXORay\Data\IconsSheet.png"
   inkscape:export-xdpi="409.60001"
   inkscape:export-ydpi="409.60001">
  <path
     style="vector-effect:none;fill:#000000;fill-opacity:1;stroke:none;stroke-width:1px;stroke-linecap:butt;stroke-linejoin:miter;stroke-miterlimit:4;stroke-dasharray:none;stroke-dashoffset:0;stroke-opacity:1;marker:none"
     d="m 252,132 v 96 h 96 v -96 z m 24,24 h 48 v 48 h -48 z"
     id="rect5665-8"
     inkscape:connector-curvature="0" />
  <defs
     id="defs275" />
  <metadata
     id="metadata28">
    <rdf:RDF>
      <cc:Work
         rdf:about="">
        <dc:format>image/svg+xml</dc:format>
        <dc:type
           rdf:resource="http://purl.org/dc/dcmitype/StillImage" />
        <dc:title></dc:title>
      </cc:Work>
    </rdf:RDF>
  </metadata>
  <sodipodi:namedview
     pagecolor="#ffffff"
     bordercolor="#666666"
     borderopacity="1"
     objecttolerance="10"
     gridtolerance="10"
     guidetolerance="10"
     inkscape:pageopacity="0"
     inkscape:pageshadow="2"
     inkscape:window-width="2560"
     inkscape:window-height="1494"
     id="namedview24"
     showgrid="true"
     inkscape:zoom="2.3098821"
     inkscape:cx="242.30735"
     inkscape:cy="230.00487"
     inkscape:window-x="2869"
     inkscape:window-y="-11"
     inkscape:window-maximized="1"
     inkscape:current-layer="svg22"
     inkscape:snap-bbox="true"
     inkscape:snap-object-midpoints="true"
     inkscape:bbox-paths="false"
     inkscape:bbox-nodes="false"
     inkscape:snap-bbox-edge-midpoints="false"
     inkscape:snap-bbox-midpoints="true"
     inkscape:object-paths="false"
     inkscape:snap-intersection-paths="false"
     inkscape:snap-smooth-nodes="true"
     inkscape:snap-midpoints="false"
     inkscape:snap-center="true"
     inkscape:snap-text-baseline="true"
     inkscape:snap-global="true"
     showguides="false"
     inkscape:snap-others="false"
     inkscape:measure-start="0,0"
     inkscape:measure-end="0,0"
     inkscape:snap-nodes="true"
     inkscape:snap-page="true"
     inkscape:document-rotation="0">
    <inkscape:grid
       type="xygrid"
       id="grid30"
       spacingx="12"
       spacingy="12" />
  </sodipodi:namedview>
  <path
     d="m 460,470 v -10 h -30 l 40,-40 -50,-50 -50,50 40,40 h -30 v 10 z"
     id="path2649"
     inkscape:connector-curvature="0" />
  <path
     style="color:#000000;font-style:normal;font-variant:normal;font-weight:normal;font-stretch:normal;font-size:medium;line-height:normal;font-family:sans-serif;font-variant-ligatures:normal;font-variant-position:normal;font-variant-caps:normal;font-variant-numeric:normal;font-variant-alternates:normal;font-feature-settings:normal;text-indent:0;text-align:start;text-decoration:none;text-decoration-line:none;text-decoration-style:solid;text-decoration-color:#000000;letter-spacing:normal;word-spacing:normal;text-transform:none;writing-mode:lr-tb;direction:ltr;text-orientation:mixed;dominant-baseline:auto;baseline-shift:baseline;text-anchor:start;white-space:normal;shape-padding:0;clip-rule:nonzero;display:inline;overflow:visible;visibility:visible;opacity:1;isolation:auto;mix-blend-mode:normal;color-interpolation:sRGB;color-interpolation-filters:linearRGB;solid-color:#000000;solid-opacity:1;vector-effect:none;fill:#000000;fill-opacity:1;fill-rule:nonzero;stroke:none;stroke-width:20;stroke-linecap:butt;stroke-linejoin:miter;stroke-miterlimit:4;stroke-dasharray:none;stroke-dashoffset:0;stroke-opacity:1;color-rendering:auto;image-rendering:auto;shape-rendering:auto;text-rendering:auto;enable-background:accumulate"
     d="m 60,130 c -21.9729,0 -40,18.0271 -40,40 0,18.5241 12.8126,34.2424 30,38.7207 V 230 H 70 V 208.7207 C 87.1874,204.2424 100,188.5241 100,170 100,148.0271 81.9729,130 60,130 Z m 0,20 c 11.1641,0 20,8.8359 20,20 0,11.1641 -8.8359,20 -20,20 -11.1641,0 -20,-8.8359 -20,-20 0,-11.1641 8.8359,-20 20,-20 z"
     id="path2082"
     inkscape:connector-curvature="0" />
  <path
     style="opacity:1;vector-effect:none;fill:#010101;fill-opacity:1;stroke:none;stroke-width:20;stroke-linecap:round;stroke-linejoin:miter;stroke-miterlimit:4;stroke-dasharray:none;stroke-dashoffset:0;stroke-opacity:1"
     d="m 180,370 c -21.9729,0 -40,18.02706 -40,40 v 10 h -10 v 50 h 100 v -50 h -10 v -10 c 0,-21.97294 -18.0271,-40 -40,-40 z m 0,20 c 11.1641,0 20,8.83586 20,20 v 10 h -40 v -10 c 0,-11.16414 8.8359,-20 20,-20 z"
     id="rect957"
     inkscape:connector-curvature="0" />
  <g
     aria-label="♈"
     style="font-style:normal;font-variant:normal;font-weight:normal;font-stretch:normal;font-size:40px;line-height:125%;font-family:Arial;-inkscape-font-specification:Arial;letter-spacing:0px;word-spacing:0px;fill:#000000;fill-opacity:1;stroke:none;stroke-width:1px;stroke-linecap:butt;stroke-linejoin:miter;stroke-opacity:1"
     id="text2642"
     transform="translate(0,-120)" />
  <path
     style="fill:#000000;fill-opacity:1;stroke:none;stroke-width:1px;stroke-linecap:butt;stroke-linejoin:miter;stroke-opacity:1"
     d="m 12,108 48,-96 48,96 z"
     id="path2987"
     inkscape:connector-curvature="0" />
  <path
     style="color:#000000;display:inline;overflow:visible;visibility:visible;fill:#000000;fill-opacity:1;fill-rule:nonzero;stroke:none;stroke-width:1px;marker:none;enable-background:accumulate"
     d="m 252,12 h 72 l -24,24 48,48 -24,24 -48,-48 -24,24 z"
     id="path3775"
     inkscape:connector-curvature="0"
     sodipodi:nodetypes="cccccccc" />
  <path
     sodipodi:type="star"
     style="color:#000000;display:inline;overflow:visible;visibility:visible;fill:#000000;fill-opacity:1;fill-rule:nonzero;stroke:none;stroke-width:1.10501;marker:none;enable-background:accumulate"
     id="path3993"
     sodipodi:sides="5"
     sodipodi:cx="60"
     sodipodi:cy="305.06491"
     sodipodi:r1="53.040581"
     sodipodi:r2="20.261501"
     sodipodi:arg1="-1.5707963"
     sodipodi:arg2="-0.9424778"
     inkscape:flatsided="false"
     inkscape:rounded="0"
     inkscape:randomized="0"
     d="m 60.000001,252.02433 11.909411,36.64868 38.535178,0.001 L 79.269833,311.32606 91.17647,347.97564 60,325.32641 28.823528,347.97564 40.730167,311.32606 9.5554105,288.67447 l 38.5351775,-0.001 z"
     inkscape:transform-center-y="-4.2207699" />
  <path
     style="color:#000000;display:inline;overflow:visible;visibility:visible;fill:#000000;fill-opacity:1;fill-rule:nonzero;stroke:none;stroke-width:1;marker:none;enable-background:accumulate"
     d="m 420,252 c -26.50967,0 -48,21.4903 -48,48 0,26.5097 21.49033,48 48,48 20.36551,0 37.72688,-12.7016 44.7,-30.6 -6.13435,11.0916 -17.92784,18.6 -31.5,18.6 -19.88225,0 -36,-16.1178 -36,-36 0,-19.8823 16.11775,-36 36,-36 13.57216,0 25.36565,7.5084 31.5,18.6 C 457.72688,264.7016 440.36551,252 420,252 Z"
     id="path4057"
     inkscape:connector-curvature="0" />
  <path
     style="color:#000000;display:inline;overflow:visible;visibility:visible;fill:#000000;fill-opacity:1;fill-rule:nonzero;stroke:none;stroke-width:1px;marker:none;enable-background:accumulate"
     d="m 283.02944,470.91169 h 33.94112 v -33.94113 l 33.94113,0 v -33.94112 h -33.94113 l 0,-33.94113 -33.94112,0 v 33.94113 h -33.94113 l 0,33.94112 33.94113,0 z"
     id="path4082"
     inkscape:connector-curvature="0" />
  <path
     sodipodi:type="star"
     style="color:#000000;display:inline;overflow:visible;visibility:visible;fill:#000000;fill-opacity:1;fill-rule:nonzero;stroke:none;stroke-width:1;marker:none;enable-background:accumulate"
     id="path4127"
     sodipodi:sides="6"
     sodipodi:cx="300"
     sodipodi:cy="300"
     sodipodi:r1="48"
     sodipodi:r2="27.695999"
     sodipodi:arg1="-1.5707963"
     sodipodi:arg2="-1.0471976"
     inkscape:flatsided="false"
     inkscape:rounded="0"
     inkscape:randomized="0"
     d="M 300,252 313.848,276.01456 341.56922,276 327.696,300 341.56922,324 313.848,323.98544 300,348 286.152,323.98544 258.43078,324 272.304,300 l -13.87322,-24 27.72122,0.0146 z" />
  <path
     style="color:#000000;display:inline;overflow:visible;visibility:visible;fill:#000000;fill-opacity:1;fill-rule:nonzero;stroke:none;stroke-width:1;marker:none;enable-background:accumulate"
     d="m 180,12 c -26.50967,0 -48,21.4903 -48,48 0,26.5097 21.49033,48 48,48 26.50967,0 48,-21.4903 48,-48 0,-26.5097 -21.49033,-48 -48,-48 z"
     id="path4144"
     inkscape:connector-curvature="0"
     sodipodi:nodetypes="sssss" />
  <path
     style="color:#000000;display:inline;overflow:visible;visibility:visible;fill:#000000;fill-opacity:1;stroke:none;stroke-width:1;stroke-linecap:butt;stroke-linejoin:miter;stroke-miterlimit:4;stroke-dasharray:none;stroke-dashoffset:0;stroke-opacity:1;marker:none;enable-background:accumulate"
     d="m 420,12 c -26.50967,0 -48,21.4903 -48,48 0,26.5097 21.49033,48 48,48 26.50967,0 48,-21.4903 48,-48 0,-26.5097 -21.49033,-48 -48,-48 z m -18,54 c 6.62742,0 12,5.3726 12,12 0,6.6274 -5.37258,12 -12,12 -6.62742,0 -12,-5.3726 -12,-12 0,-6.6274 5.37258,-12 12,-12 z m 36,0 c 6.62742,0 12,5.3726 12,12 0,6.6274 -5.37258,12 -12,12 -6.62742,0 -12,-5.3726 -12,-12 0,-6.6274 5.37258,-12 12,-12 z"
     id="path3030"
     inkscape:connector-curvature="0" />
  <path
     style="opacity:1;vector-effect:none;fill:#000000;fill-opacity:1;fill-rule:evenodd;stroke:none;stroke-width:1px;stroke-linecap:butt;stroke-linejoin:miter;stroke-miterlimit:4;stroke-dasharray:none;stroke-dashoffset:0;stroke-opacity:1;marker:none"
     d="m 18,372 h 84 v 24 H 72 v 72 H 48 V 396 H 18 Z"
     id="path5529"
     inkscape:connector-curvature="0"
     sodipodi:nodetypes="ccccccccc" />
  <path
     sodipodi:type="star"
     style="opacity:1;vector-effect:none;fill:#000000;fill-opacity:1;stroke:none;stroke-width:1;stroke-linecap:butt;stroke-linejoin:miter;stroke-miterlimit:4;stroke-dasharray:none;stroke-dashoffset:0;stroke-opacity:1;marker:none"
     id="path5888"
     sodipodi:sides="6"
     sodipodi:cx="180"
     sodipodi:cy="300"
     sodipodi:r1="48"
     sodipodi:r2="41.569218"
     sodipodi:arg1="3.1415927"
     sodipodi:arg2="3.6651914"
     inkscape:flatsided="true"
     inkscape:rounded="0"
     inkscape:randomized="0"
     d="m 132,300 24,-41.56922 48,0 24,41.56922 -24,41.56922 -48,0 z" />
  <g
     id="g876">
    <path
       id="rect5665"
       style="opacity:1;vector-effect:none;fill:#000000;fill-opacity:1;stroke:none;stroke-width:1px;stroke-linecap:butt;stroke-linejoin:miter;stroke-miterlimit:4;stroke-dasharray:none;stroke-dashoffset:0;stroke-opacity:1;marker:none"
       d="M 204 132 L 204 156 L 204 204 L 156 204 L 132 204 L 132 228 L 228 228 L 228 132 L 204 132 z " />
    <rect
       style="fill:#000000;stroke:none;stroke-width:3.77953;stroke-linejoin:round;fill-opacity:1"
       id="rect872"
       width="60"
       height="60"
       x="132"
       y="132" />
  </g>
  <g
     id="g891">
    <circle
       style="fill:#000000;fill-opacity:1;stroke:none;stroke-width:3.77953;stroke-linejoin:round"
       id="path880"
       cx="396"
       cy="204"
       r="24" />
    <circle
       style="fill:#000000;fill-opacity:1;stroke:none;stroke-width:3.77953;stroke-linejoin:round"
       id="circle882"
       cx="444"
       cy="156"
       r="24" />
    <path
       style="fill:#000000;fill-opacity:1;stroke:#000000;stroke-width:10;stroke-linejoin:round;stroke-opacity:1;stroke-miterlimit:4;stroke-dasharray:none"
       d="m 396,204 48,-48"
       id="path886" />
  </g>
</svg>
